<svg width="41" height="28" viewBox="0 0 41 28" fill="none" xmlns="http://www.w3.org/2000/svg">
<path d="M5.7243 3.82669C5.04852 3.82669 4.49562 4.32984 4.49562 4.94479V6.48916L17.7423 16.3843C19.3319 17.5723 21.6127 17.5723 23.2023 16.3843L36.4413 6.48916V4.94479C36.4413 4.32984 35.8884 3.82669 35.2127 3.82669H5.7243ZM4.49562 10.8288V22.8344C4.49562 23.4493 5.04852 23.9525 5.7243 23.9525H35.2127C35.8884 23.9525 36.4413 23.4493 36.4413 22.8344V10.8288L25.5368 18.9769C22.588 21.1782 18.3413 21.1782 15.4002 18.9769L4.49562 10.8288ZM0.80957 4.94479C0.80957 2.47799 3.01352 0.472397 5.7243 0.472397H35.2127C37.9234 0.472397 40.1274 2.47799 40.1274 4.94479V22.8344C40.1274 25.3012 37.9234 27.3068 35.2127 27.3068H5.7243C3.01352 27.3068 0.80957 25.3012 0.80957 22.8344V4.94479Z" fill="#3A2818"/>
</svg>
